<svg width="97" height="22" viewBox="0 0 97 22" fill="none" xmlns="http://www.w3.org/2000/svg">
<g clip-path="url(#clip0_732_5476)">
<path d="M34.0859 2.77683V0.938354H27.0428V10.8564H29.0341V6.72658H33.9548V4.93173H29.0341V2.77683H34.0913H34.0859Z" fill="white"/>
<path d="M38.7284 3.46967C36.4372 3.46967 34.746 5.16086 34.746 7.23937C34.746 9.3179 36.4372 11.0254 38.7284 11.0254C41.0197 11.0254 42.7219 9.32335 42.7219 7.23937C42.7219 5.15538 41.0361 3.46967 38.7284 3.46967ZM38.7121 9.32335C37.5173 9.32335 36.6445 8.36864 36.6445 7.22301C36.6445 6.07737 37.5173 5.12811 38.7121 5.12811C39.9068 5.12811 40.7796 6.07737 40.7796 7.22301C40.7796 8.36864 39.9068 9.32335 38.7121 9.32335Z" fill="white"/>
<path d="M47.5446 3.43701C46.677 3.43701 45.9952 3.98257 45.526 4.70814L45.4551 3.58977H43.7966V10.8564H45.7277V7.1358C45.7277 5.89743 46.4806 5.26458 47.4463 5.26458C47.7192 5.26458 47.9865 5.31914 48.2755 5.41734L48.2919 3.56248C48.0354 3.46975 47.7791 3.43701 47.5554 3.43701H47.5446Z" fill="white"/>
<path d="M54.9368 3.58975L54.8767 4.4408C54.2495 3.81888 53.3819 3.44244 52.4054 3.44244C50.3379 3.44244 48.6521 5.10089 48.6521 7.15216C48.6521 9.2034 50.3379 10.8564 52.4054 10.8564C53.2946 10.8564 54.0639 10.54 54.6696 10.0272V10.7527C54.6696 12.1712 53.7474 12.804 52.4981 12.804C51.4398 12.804 50.5069 12.2475 50.2178 11.9311L49.0886 13.3332C49.4649 13.846 50.8998 14.6316 52.569 14.6316C55.264 14.6316 56.5953 12.9458 56.5953 10.6873V3.5952H54.9422L54.9368 3.58975ZM52.6292 9.17066C51.5107 9.17066 50.5942 8.26505 50.5942 7.15216C50.5942 6.03924 51.5107 5.14999 52.6292 5.14999C53.7474 5.14999 54.6639 6.03924 54.6639 7.15216C54.6639 8.26505 53.7421 9.17066 52.6292 9.17066Z" fill="white"/>
<path d="M65.2967 7.23937C65.2967 5.13357 63.922 3.46967 61.5434 3.46967C59.1648 3.46967 57.6971 5.12811 57.6971 7.23937C57.6971 9.35064 59.2247 11.0254 61.5434 11.0254C62.88 11.0254 63.9983 10.4854 64.5111 10.0762L63.5454 8.71779C63.2891 8.94694 62.7272 9.367 61.6906 9.367C60.7523 9.367 59.9667 8.85419 59.7268 7.90494L65.2312 7.9213C65.264 7.70855 65.2911 7.45213 65.2911 7.23937H65.2967ZM59.683 6.66655C59.8794 5.69003 60.6049 5.10083 61.5979 5.10083C62.6563 5.10083 63.2999 5.73368 63.3327 6.66655H59.683Z" fill="white"/>
<path d="M65.0075 0.938354V2.80958H68.0189V10.8564H70.0101V0.938354H65.0018H65.0075Z" fill="white"/>
<path d="M79.9225 7.23937C79.9225 5.13357 78.5477 3.46967 76.1638 3.46967C73.905 3.46967 72.3231 5.12811 72.3231 7.23937C72.3231 9.35064 73.8451 11.0254 76.1638 11.0254C77.5058 11.0254 78.624 10.4854 79.1368 10.0762L78.1714 8.71779C77.9095 8.94694 77.3529 9.367 76.311 9.367C75.3781 9.367 74.5924 8.85419 74.3525 7.90494L79.857 7.9213C79.8897 7.70855 79.9171 7.45213 79.9171 7.23937H79.9225ZM74.3087 6.66655C74.5051 5.69003 75.2309 5.10083 76.2237 5.10083C77.282 5.10083 77.9259 5.73368 77.9584 6.66655H74.3087Z" fill="white"/>
<path d="M84.6251 9.3179C83.4795 9.3179 82.563 8.39593 82.563 7.20665C82.563 6.01736 83.4795 5.12811 84.6251 5.12811C85.4108 5.12811 86.0872 5.58092 86.42 6.18648L87.9694 5.38451C87.4456 4.23887 86.131 3.46967 84.598 3.46967C82.3666 3.46967 80.6644 5.08447 80.6644 7.22301C80.6644 9.36155 82.3666 10.9763 84.598 10.9763C86.131 10.9763 87.4456 10.2126 87.9694 9.06696L86.42 8.26499C86.0872 8.87055 85.4108 9.32335 84.6251 9.32335V9.3179Z" fill="white"/>
<path d="M93.0977 3.43694C92.2411 3.43694 91.4718 3.87338 90.8827 4.52257L90.8991 0H88.9514V10.8563H90.8827V7.103C90.8827 6.07738 91.6083 5.22086 92.5849 5.22086C93.6978 5.22086 94.0032 5.99009 94.0032 6.9557V10.8618H95.9345V6.77567C95.9345 4.88262 95.1161 3.44239 93.0977 3.44239V3.43694Z" fill="white"/>
<path d="M72.3175 2.99501C72.9382 2.99501 73.4413 2.49187 73.4413 1.8712C73.4413 1.25053 72.9382 0.747375 72.3175 0.747375C71.6968 0.747375 71.1936 1.25053 71.1936 1.8712C71.1936 2.49187 71.6968 2.99501 72.3175 2.99501Z" fill="#8C0FA1"/>
<path d="M19.5197 0C20.7821 5.01787e-05 21.8055 1.02342 21.8055 2.2858V19.5197C21.8054 20.782 20.782 21.8054 19.5197 21.8055H2.2858C1.02342 21.8055 5.01797e-05 20.7821 0 19.5197V2.2858C1.8938e-05 1.0234 1.0234 1.82148e-05 2.2858 0H19.5197ZM9.99458 11.1236C9.86915 11.1237 9.75471 11.1892 9.69472 11.2983L7.79607 14.6043C7.73614 14.708 7.73614 14.8388 7.79607 14.9479L9.5146 17.9484C9.651 18.183 9.98912 18.183 10.12 17.9484L11.9423 14.7735L13.7425 11.642C13.8788 11.4129 13.7099 11.1237 13.4426 11.1236H9.99458ZM3.97187 7.40319C3.74819 7.40319 3.61179 7.64308 3.7209 7.83404L5.52102 10.9765C5.57012 11.0692 5.66837 11.1236 5.77198 11.1236H9.79824L9.82543 11.08H9.81996L7.79607 7.55038C7.747 7.45765 7.64877 7.40321 7.54513 7.40319H3.97187ZM9.96144 3.68252C9.86873 3.68254 9.78698 3.73167 9.7379 3.81347L7.69757 7.27748C7.68121 7.29932 7.69757 7.35954 7.69757 7.35954C7.70852 7.38673 7.74119 7.40295 7.76843 7.40298H16.0335C16.1262 7.40295 16.2079 7.35399 16.257 7.27224L18.0901 4.0697H18.0956C18.1991 3.9006 18.0738 3.68257 17.872 3.68252H9.96144Z" fill="#8C0FA1"/>
<path d="M51.0047 19.5755C51.0047 19.8807 50.8937 20.1357 50.6644 20.3217C50.4383 20.5049 50.1586 20.5953 49.8405 20.5953C49.5562 20.5953 49.3006 20.51 49.0761 20.3402L49.0757 20.3398C48.8566 20.1695 48.7054 19.9386 48.6214 19.6505L48.606 19.5972L48.657 19.5759L49.0612 19.4087L49.1246 19.3824L49.144 19.4484C49.1688 19.5326 49.1969 19.6079 49.2344 19.6701L49.2512 19.6962L49.2524 19.6982L49.2538 19.7005C49.2859 19.7564 49.3235 19.8062 49.3673 19.8498L49.4129 19.8914L49.415 19.8932L49.46 19.9305C49.4913 19.9539 49.5248 19.9742 49.5599 19.991L49.6133 20.0134L49.617 20.0148C49.6877 20.045 49.7652 20.0559 49.8464 20.0559C50.031 20.0559 50.1724 20.0073 50.2805 19.9197C50.3866 19.8338 50.4423 19.7191 50.4423 19.5698C50.4423 19.4483 50.3973 19.3426 50.3105 19.2558C50.223 19.1683 50.0559 19.0797 49.7979 18.9938L49.7963 18.9931C49.5321 18.8955 49.3666 18.8308 49.2936 18.7943L49.2933 18.7941C49.1101 18.7009 48.9694 18.5833 48.8751 18.4405C48.7806 18.2973 48.7344 18.1323 48.7344 17.9484C48.7344 17.687 48.8412 17.4631 49.0432 17.2794L49.0439 17.2787C49.2524 17.0946 49.5098 17.0036 49.8117 17.0035C50.076 17.0035 50.3082 17.0697 50.5047 17.2106L50.5747 17.2623C50.7308 17.3865 50.838 17.5363 50.8977 17.7153L50.9157 17.7697L50.8628 17.7918L50.4647 17.9591L50.4006 17.9863L50.3814 17.9191C50.3507 17.8124 50.2845 17.7197 50.1848 17.6462C50.0872 17.5744 49.9679 17.537 49.8234 17.537C49.6685 17.537 49.544 17.5795 49.4408 17.662L49.4392 17.6632C49.3383 17.7389 49.2908 17.8308 49.2908 17.9484C49.291 18.0444 49.3284 18.126 49.4026 18.1959C49.4457 18.2309 49.5173 18.2727 49.6215 18.3205C49.7259 18.3684 49.8593 18.4211 50.0226 18.4784H50.0224C50.3608 18.5951 50.6159 18.7382 50.7652 18.9186C50.908 19.091 50.9871 19.2982 50.9925 19.5378L51.0047 19.5499V19.5755Z" fill="white" stroke="white" stroke-width="0.123772"/>
<path d="M56.63 17.0468V19.2033C56.63 19.464 56.6963 19.6607 56.8271 19.8018C56.9582 19.9433 57.1311 20.0185 57.3701 20.0185C57.609 20.0185 57.7822 19.9434 57.9133 19.8018C58.0439 19.6607 58.1104 19.464 58.1104 19.2033V17.0468H58.6613V19.1861C58.6611 19.596 58.548 19.9301 58.3095 20.1808L58.3093 20.1806C58.0762 20.4317 57.7588 20.552 57.3759 20.552H57.3614L57.3493 20.5458C56.9776 20.5425 56.6658 20.4161 56.4309 20.1691C56.1926 19.9187 56.0791 19.5906 56.0791 19.1861V17.0468H56.63Z" fill="white" stroke="white" stroke-width="0.123772"/>
<path d="M64.9919 17.0844C65.2669 17.0844 65.5068 17.1767 65.7088 17.3602H65.7086C65.9127 17.5398 66.0119 17.7703 66.0119 18.0464C66.0119 18.2204 65.9719 18.3714 65.889 18.4973C65.8254 18.594 65.7378 18.673 65.6288 18.7364C65.7587 18.7977 65.8698 18.8841 65.9543 19.0031H65.9541C66.0662 19.1531 66.1156 19.3219 66.1156 19.5064C66.1156 19.7942 66.0105 20.0356 65.8015 20.2263L65.8017 20.2266C65.5988 20.4173 65.3465 20.5086 65.0556 20.5086H63.7976V20.4526H63.7356V17.0844H64.9919ZM64.2865 19.9868H65.0785C65.2182 19.9868 65.3294 19.9411 65.4273 19.8433C65.5199 19.7449 65.5649 19.6334 65.5649 19.5064C65.5649 19.379 65.5197 19.2676 65.4214 19.1692C65.3243 19.0721 65.2077 19.0257 65.0612 19.0257H64.2865V19.9868ZM64.2865 18.5039H64.9978C65.1319 18.5039 65.2435 18.4579 65.336 18.3707C65.427 18.279 65.4668 18.1741 65.4668 18.058C65.4668 17.9421 65.4275 17.8422 65.3348 17.7497L65.3334 17.7485C65.2484 17.6586 65.1443 17.6178 65.0151 17.6178H64.2865V18.5039Z" fill="white" stroke="white" stroke-width="0.123772"/>
<path d="M71.741 20.5145H71.1903V17.0844H71.715L71.7328 17.1157L72.8361 19.0504L73.9394 17.1157L73.9572 17.0844H74.4819V20.5145H73.9312V18.4888L73.9417 18.1517L73.014 19.7793L72.9962 19.8106H72.676L72.6582 19.7793L71.7302 18.1517L71.741 18.4888V20.5145Z" fill="white" stroke="white" stroke-width="0.123772"/>
<path d="M80.1071 20.5145H79.5564V17.0844H80.0811L80.0989 17.1157L81.2022 19.0504L82.3055 17.1157L82.3232 17.0844H82.848V20.5145H82.2973V18.4888L82.3078 18.1517L81.3801 19.7793L81.3623 19.8106H81.0421L81.0243 19.7793L80.0963 18.1517L80.1071 18.4888V20.5145Z" fill="white" stroke="white" stroke-width="0.123772"/>
<path d="M88.4734 17.0844V20.5145H87.9227V17.0844H88.4734Z" fill="white" stroke="white" stroke-width="0.123772"/>
<path d="M95.9455 17.0872V17.6149H95.0222V20.5114H94.4715V17.6149H93.5482V17.0872H95.9455Z" fill="white" stroke="white" stroke-width="0.123772"/>
</g>
<defs>
<clipPath id="clip0_732_5476">
<rect width="96.1915" height="22" fill="white"/>
</clipPath>
</defs>
</svg>
